<svg class="svg-icon" style="width: 1em; height: 1em;vertical-align: middle;fill: #38507F;overflow: hidden;" viewBox="0 0 1024 1024" version="1.1" xmlns="http://www.w3.org/2000/svg"><path d="M335.477634 371.017058c76.271104 0 138.323369-61.526285 138.323369-137.155776 0-75.627445-62.052265-137.155776-138.323369-137.155776-76.273151 0-138.323369 61.528332-138.323369 137.155776C197.154265 309.490773 259.204483 371.017058 335.477634 371.017058zM957.390953 705.987133c-0.722454-2.209318-3.163039-7.436366-10.143011-8.280594l-83.746356-10.145058c-20.748556-2.517333-38.400588-15.229866-47.219441-34.017768l-35.609009-75.841316 0 0.004093c-2.969635-6.328126-8.735965-7.008624-11.084453-7.008624-2.342348 0.002047-8.110725 0.684592-11.078313 7.004531l-35.609009 75.839269c-8.81476 18.784832-26.467815 31.502481-47.213301 34.019815l-83.754542 10.145058c-6.979972 0.846274-9.41544 6.072299-10.140964 8.280594-0.722454 2.211365-1.851161 7.858992 3.292999 12.613272l61.737086 57.021691c15.301498 14.121626 22.042016 34.69929 18.037818 55.04364l-16.149818 82.105996c-1.343601 6.845918 2.915399 10.762111 4.811586 12.124132 1.898233 1.364067 6.973832 4.172019 13.118785 0.792039l73.768097-40.603767c9.136078-5.028527 19.158339-7.543813 29.179576-7.543813 10.025331 0 20.047592 2.515287 29.187763 7.543813l73.768097 40.603767c6.15314 3.388167 11.218506 0.576121 13.116739-0.792039 1.89414-1.362021 6.15928-5.278213 4.811586-12.124132l-16.151865-82.110089c-3.999081-20.344351 2.744507-40.924061 18.035772-55.041594l61.745273-57.015551C959.245184 713.849194 958.1175 708.197474 957.390953 705.987133zM536.228821 691.310875c7.308453-22.300912 26.424836-37.919634 49.895387-40.755216l18.809391-2.27788 0-96.072079c0-52.191686-33.828456-98.473779-83.847663-114.724905l-0.231267-0.072655-73.163323-12.008498c-6.226818-1.90028-12.879332 1.36816-15.120372 7.456832l-83.013669 225.849818c-4.789073 13.029758-23.373337 13.029758-28.160363 0l-83.015715-225.849818c-1.809205-4.919033-6.490831-8.001231-11.505032-8.001231-1.190105 0-76.774571 12.540617-76.774571 12.540617-50.433646 16.657378-84.130096 63.014172-84.130096 115.437126l0 187.924043c0 28.158317 23.026436 50.989301 51.426253 50.989301l436.112636 0c11.228739 0 21.603017-3.577478 30.052456-9.641591l-31.122835-28.743648C535.13286 737.381144 528.922415 713.605647 536.228821 691.310875zM365.481995 419.871743c-3.173273-3.429099-7.809873-5.152347-12.501732-5.152347L317.976028 414.719396c-4.695952 0-9.332553 1.723248-12.503778 5.152347-4.91494 5.306866-5.625114 12.972453-2.139733 18.961864l18.710131 27.970028-8.758478 73.266677 17.249873 45.49824c1.681292 4.574179 8.207939 4.574179 9.891278 0l17.247826-45.49824-8.758478-73.266677 18.710131-27.970028C371.109156 432.846242 370.396935 425.180656 365.481995 419.871743z"  /></svg>